<?xml version="1.0" encoding="utf-8"?>
<!-- Generator: Adobe Illustrator 26.0.2, SVG Export Plug-In . SVG Version: 6.00 Build 0)  -->
<svg version="1.1" id="Warstwa_1" xmlns="http://www.w3.org/2000/svg" xmlns:xlink="http://www.w3.org/1999/xlink" x="0px" y="0px"
	 viewBox="0 0 500 500" style="enable-background:new 0 0 500 500;" xml:space="preserve">
<style type="text/css">
	.st0{fill:url(#SVGID_1_);}
	.st1{fill:url(#SVGID_00000151523358351511059090000006356626108008143032_);}
	.st2{fill:url(#SVGID_00000013155334404295557240000006177586700560950438_);}
	.st3{fill:url(#SVGID_00000047018896999536736760000002147757738487677846_);}
	.st4{fill:url(#SVGID_00000023984223290387265940000007904791356264828338_);}
	.st5{fill:url(#SVGID_00000040563047662395119170000013237890192759057541_);}
	.st6{fill:url(#SVGID_00000103975451689011491240000005191769516516625570_);}
	.st7{fill:url(#SVGID_00000159445527235486544940000002515782263555941045_);}
	.st8{fill:url(#SVGID_00000011733455609915344240000010585436244271670196_);}
	.st9{fill:url(#SVGID_00000093886910767337209350000003418066667129540761_);}
	.st10{fill:url(#SVGID_00000013887456620901604600000004623362663692852103_);}
	.st11{fill:url(#SVGID_00000005263313691511310920000004087438215601234826_);}
	.st12{fill:url(#SVGID_00000011749339500651352810000007291182084580222620_);}
	.st13{fill:url(#SVGID_00000041291658189762830940000009176241031353106355_);}
	.st14{fill:url(#SVGID_00000158003325075193183840000018420287615584325286_);}
	.st15{fill:url(#SVGID_00000138533439815340782170000015331725793946880431_);}
	.st16{fill:url(#SVGID_00000048494713437913562630000011427856416013394873_);}
	.st17{fill:url(#SVGID_00000039855548577869531700000013122779006831152062_);}
	.st18{fill:url(#SVGID_00000061446929753819616890000007959808215582134460_);}
	.st19{fill:url(#SVGID_00000124882508219594655830000016894947886341898668_);}
	.st20{fill:url(#SVGID_00000059993607706435881200000013408980836032024196_);}
	.st21{fill:url(#SVGID_00000132803605751236114820000002805261503323461766_);}
	.st22{fill:url(#SVGID_00000166648767735511166520000010330378104213067191_);}
</style>
<linearGradient id="SVGID_1_" gradientUnits="userSpaceOnUse" x1="135.1895" y1="148.8889" x2="386.4266" y2="400.126">
	<stop  offset="0" style="stop-color:#cb5eee"/>
	<stop  offset="1" style="stop-color:#4be1ec"/>
</linearGradient>
<path class="st0" d="M420.45,325.64H318.36v-23.91c0-2.63-1.71-4.95-4.21-5.73c-2.51-0.78-5.23,0.16-6.72,2.32l-46.65,67.54
	c-1.42,2.05-1.42,4.77,0,6.82l46.65,67.54c1.14,1.65,3,2.59,4.94,2.59c0.59,0,1.2-0.09,1.79-0.27c2.51-0.78,4.21-3.1,4.21-5.73
	V412.9h36.19c16.62,0,32.02-8.99,40.18-23.47l30.94-54.84c1.05-1.86,1.03-4.13-0.04-5.97C424.56,326.77,422.59,325.64,420.45,325.64
	z M384.28,383.53c-6.04,10.71-17.43,17.36-29.73,17.36h-42.19c-3.31,0-6,2.69-6,6v10.67L273,369.27l33.36-48.3v10.67
	c0,3.31,2.69,6,6,6h97.82L384.28,383.53z M427.51,271.98l-35.88-62.14c-1.66-2.87-5.32-3.85-8.2-2.2l-65.18,37.63
	c-1.38,0.8-2.38,2.11-2.8,3.64c-0.41,1.54-0.2,3.17,0.6,4.55l32.82,56.85c1.07,1.86,3.05,3,5.2,3c0.02,0,0.04,0,0.06,0l50.06-0.5
	c9.79-0.1,18.53-5.23,23.38-13.73C432.43,290.59,432.41,280.46,427.51,271.98z M417.16,293.14c-2.71,4.75-7.6,7.62-13.07,7.68
	l-46.56,0.46l-28.07-48.62l54.78-31.63l32.88,56.94C419.86,282.72,419.87,288.39,417.16,293.14z M189.36,305.14
	c0.93,0.54,1.97,0.8,3,0.8c1.47,0,2.94-0.54,4.07-1.59c1.93-1.78,2.48-4.61,1.35-6.98l-35.21-74.15c-1.07-2.25-3.41-3.6-5.91-3.41
	l-81.81,6.67c-2.62,0.21-4.79,2.1-5.37,4.67c-0.58,2.56,0.58,5.2,2.86,6.51l20.72,11.95l-18.08,31.36
	c-8.3,14.39-8.21,32.22,0.25,46.53l32.05,54.21c1.08,1.83,3.04,2.95,5.17,2.95c0.01,0,0.02,0,0.03,0c2.13-0.01,4.1-1.16,5.17-3
	l51.01-88.44L189.36,305.14z M112.39,366.75l-26.82-45.36c-6.26-10.59-6.33-23.78-0.19-34.43l21.08-36.56
	c1.66-2.87,0.67-6.54-2.2-8.19l-9.24-5.33l58.5-4.77l25.18,53.02l-9.24-5.33c-0.42-0.24-0.86-0.42-1.31-0.55
	c-2.19-0.65-4.58,0.02-6.13,1.71c-0.28,0.31-0.54,0.66-0.76,1.04c0,0,0,0.01-0.01,0.01L112.39,366.75z M232.71,325.77
	C232.71,325.77,232.71,325.77,232.71,325.77l-65.64,0.03c-2.17,0-4.16,1.17-5.22,3.05l-24.58,43.61c-4.8,8.53-4.72,18.66,0.21,27.11
	c4.94,8.45,13.72,13.49,23.5,13.49c0,0,0.01,0,0.01,0l71.75-0.04c1.59,0,3.12-0.63,4.24-1.76c1.12-1.13,1.76-2.65,1.75-4.24
	l-0.04-75.26C238.71,328.45,236.02,325.77,232.71,325.77z M160.99,401.06C160.99,401.06,160.99,401.06,160.99,401.06
	c-5.48,0-10.39-2.82-13.15-7.54c-2.76-4.72-2.81-10.39-0.12-15.16l22.86-40.56l56.14-0.03l0.03,63.26L160.99,401.06z M335.33,212.27
	c2.28,0,4.38-1.29,5.39-3.37l35.97-73.77c1.15-2.36,0.63-5.19-1.28-7c-1.91-1.8-4.77-2.15-7.06-0.86l-20.83,11.72l-17.75-31.54
	c-8.16-14.48-23.55-23.49-40.16-23.5l-62.98-0.07c0,0,0,0-0.01,0c-2.13,0-4.1,1.13-5.18,2.97c-1.08,1.84-1.1,4.12-0.05,5.97
	l50.08,88.97l-20.84,11.73c-2.29,1.29-3.47,3.91-2.92,6.48c0.55,2.57,2.7,4.48,5.32,4.72l81.74,7.52
	C334.96,212.26,335.14,212.27,335.33,212.27z M273.3,194.54l9.3-5.23c2.89-1.63,3.91-5.28,2.29-8.17l-47.99-85.25l52.7,0.06
	c12.29,0.01,23.67,6.67,29.71,17.39l20.7,36.77c1.12,1.98,3.19,3.09,5.32,3.06c0.18,0,0.35-0.02,0.53-0.03c0.02,0,0.04,0,0.05,0
	c0.45-0.05,0.9-0.16,1.34-0.32c0.31-0.11,0.63-0.25,0.93-0.42c0,0,0.01,0,0.01-0.01l9.28-5.22l-25.72,52.75L273.3,194.54z
	 M217.81,114.8c-4.89-8.48-13.64-13.58-23.43-13.64c-0.06,0-0.11,0-0.17,0c-9.72,0-18.47,4.98-23.42,13.36l-36.55,61.74
	c-0.81,1.37-1.04,3-0.65,4.55c0.4,1.54,1.39,2.86,2.76,3.67l64.76,38.34c0.93,0.55,1.99,0.84,3.06,0.84c0.5,0,1-0.06,1.49-0.19
	c1.54-0.4,2.86-1.39,3.67-2.76l33.44-56.48c1.1-1.86,1.12-4.18,0.04-6.05L217.81,114.8z M202.06,209.44l-54.44-32.23l33.5-56.58
	c2.79-4.71,7.74-7.49,13.19-7.47c5.47,0.03,10.37,2.88,13.1,7.63l23.24,40.34L202.06,209.44z"/>
</svg>
